PathFileType	4	(X/Y/Z)	C:/Users/opensim2020/Desktop/walking_exp_matlab/subject03_walking07_straight_02.trc	
DataRate	CameraRate	NumFrames	NumMarkers	Units	OrigDataRate	OrigDataStartFrame	OrigNumFrames	
100.00	100.00	7	46	mm	100.00	1561	252	
Frame#	Time	LFHD			RFHD			LBHD			RBHD			C7			T10			CLAV			STRN			RBAK			LSHO			LUPA			LELB			LFRM			LWRA			LWRB			LFIN			RSHO			RUPA			RELB			RFRM			RWRA			RWRB			RFIN			LASI			RASI			LPSI			RPSI			LTHI			LKNE			LTIB			LANK			LHEE			LTOE			RTHI			RKNE			RTIB			RANK			RHEE			RTOE			*39			*40			*41			*42			*43			*44			*45			
		X1	Y1	Z1	X2	Y2	Z2	X3	Y3	Z3	X4	Y4	Z4	X5	Y5	Z5	X6	Y6	Z6	X7	Y7	Z7	X8	Y8	Z8	X9	Y9	Z9	X10	Y10	Z10	X11	Y11	Z11	X12	Y12	Z12	X13	Y13	Z13	X14	Y14	Z14	X15	Y15	Z15	X16	Y16	Z16	X17	Y17	Z17	X18	Y18	Z18	X19	Y19	Z19	X20	Y20	Z20	X21	Y21	Z21	X22	Y22	Z22	X23	Y23	Z23	X24	Y24	Z24	X25	Y25	Z25	X26	Y26	Z26	X27	Y27	Z27	X28	Y28	Z28	X29	Y29	Z29	X30	Y30	Z30	X31	Y31	Z31	X32	Y32	Z32	X33	Y33	Z33	X34	Y34	Z34	X35	Y35	Z35	X36	Y36	Z36	X37	Y37	Z37	X38	Y38	Z38	X39	Y39	Z39	X40	Y40	Z40	X41	Y41	Z41	X42	Y42	Z42	X43	Y43	Z43	X44	Y44	Z44	X45	Y45	Z45	X46	Y46	Z46	

95	0.940	-946.13745	203.08476	1594.08337	-1078.40295	212.42511	1603.03052	-942.39801	334.95959	1562.93762	-1073.12207	339.16391	1570.98157	-1006.43024	379.90561	1403.42712	-1007.46271	423.02927	1089.96057	-1009.91449	261.45297	1322.37085	-1008.75781	223.63976	1156.79919	-1106.29395	439.73404	1230.55359	-851.29120	304.02243	1357.69434	-784.78448	339.25858	1159.39050	-774.45276	349.75665	1036.45886	-773.41406	346.22906	906.00500	-801.46680	348.35641	786.49713	-751.41144	371.39005	795.80682	-761.24969	374.46948	710.50513	-1167.45593	307.15549	1350.66797	-1247.65601	266.72095	1138.51111	-1263.42468	224.50142	1035.41907	-1263.99255	162.40802	914.00433	-1227.18945	100.81940	838.44226	-1269.69519	127.51131	819.87354	-1259.79053	75.66541	768.10687	-902.92285	247.83458	924.55646	-1140.54248	267.34573	925.39941	-937.42035	414.66107	941.23175	-1086.67444	424.15790	955.48871	-854.00916	242.00536	623.56763	-899.33899	173.73198	461.45172	-891.76874	155.44366	273.49048	-922.44971	91.64158	69.75140	-960.26154	118.28537	24.15622	-944.50464	-60.87421	74.67285	-1171.91663	365.91263	637.40363	-1135.54846	389.66885	458.50510	-1132.93774	487.57581	290.25900	-1079.67114	575.36731	92.13602	-1027.24109	624.23962	71.51253	-1068.03259	443.34537	30.00958																					 
96	0.950	-945.30658	193.17540	1593.75183	-1077.81238	202.55414	1602.62842	-941.43994	324.90814	1562.44666	-1072.11816	329.29111	1570.40747	-1005.00641	369.70523	1402.86951	-1006.29260	412.38312	1089.26172	-1008.95581	251.16609	1321.92749	-1008.13000	213.12921	1156.43164	-1104.93713	429.70950	1229.94458	-850.23181	293.35193	1357.07544	-783.87030	328.22974	1158.61621	-773.73804	338.98535	1035.71826	-772.64819	335.80087	905.26282	-800.88611	338.63565	785.58435	-750.58026	361.38226	795.15216	-760.51331	365.07343	709.83240	-1166.37500	297.31686	1350.14441	-1245.86670	256.60022	1137.85706	-1261.58240	214.20743	1034.87170	-1262.41138	152.50253	913.13159	-1225.80066	91.21909	837.21985	-1268.35327	118.03969	818.92651	-1258.66931	66.44086	766.81531	-902.53564	236.53822	923.92169	-1140.18274	257.22897	924.78723	-936.22528	403.60397	940.84247	-1085.43604	413.64990	954.97260	-854.17395	231.01125	623.26428	-899.31226	163.71974	460.68622	-892.20990	148.98706	271.60339	-923.71259	88.67887	67.07719	-961.50854	116.21088	23.37414	-945.58307	-63.74295	69.39995	-1171.67163	357.02063	637.14886	-1135.74634	381.48215	458.23276	-1133.19714	482.17722	291.38223	-1080.04675	573.70825	94.81383	-1027.77063	622.95636	75.24147	-1068.17834	443.04977	29.97263																					 
97	0.960	-944.43341	183.26085	1593.59607	-1076.96533	192.78951	1602.30042	-940.42938	315.03067	1562.12439	-1071.04749	319.51157	1569.90564	-1003.62061	359.52423	1402.33472	-1005.02338	401.51654	1088.64575	-1007.96606	240.79395	1321.65210	-1007.43530	202.36920	1156.20178	-1103.50256	419.55127	1229.38147	-849.03973	282.61298	1356.61340	-782.89044	317.00879	1157.93774	-772.77002	327.70853	1035.12891	-771.95160	324.92874	904.61609	-800.69452	328.50751	784.61688	-749.77283	350.73743	794.54120	-759.82452	354.99661	709.24530	-1165.25500	287.47491	1349.77734	-1244.15332	246.75467	1137.28687	-1259.65417	204.14146	1034.26440	-1260.77405	143.01131	912.19916	-1224.52637	82.05137	835.74988	-1267.12549	108.94501	817.76794	-1257.55835	57.87421	765.20300	-902.06628	224.92410	923.38885	-1139.74048	246.86922	924.24261	-934.99194	392.22910	940.60565	-1084.12427	402.87363	954.59143	-854.18207	219.57103	623.23236	-899.21997	154.15781	459.74963	-892.88062	143.78604	269.46606	-924.85242	86.90125	64.84551	-962.31354	116.07685	22.35633	-947.39636	-65.55704	61.25929	-1171.37109	347.84659	636.88171	-1136.01440	372.85925	457.92059	-1133.59106	476.40842	292.49448	-1080.83728	571.83057	97.80750	-1028.41016	621.48676	79.35113	-1068.34949	442.68094	29.91353																					 
98	0.970	-943.58899	173.13792	1593.47363	-1076.11340	182.91757	1602.20447	-939.30701	304.83249	1561.72644	-1070.03076	309.63663	1569.57092	-1002.14136	349.55859	1402.05334	-1003.53619	390.36398	1088.08667	-1006.88068	230.37688	1321.49768	-1006.67120	191.61099	1156.25378	-1101.84009	409.40060	1229.02332	-847.84760	271.74536	1356.32434	-781.84717	305.49985	1157.41565	-772.01135	316.24487	1034.46655	-771.28156	313.74432	904.06769	-799.74725	317.40750	784.31732	-749.02734	339.60608	794.03290	-759.22131	344.27066	708.72534	-1164.04309	277.58505	1349.50732	-1242.53967	237.10405	1136.71716	-1257.75562	194.36775	1033.57764	-1259.20093	133.87466	911.17450	-1223.23047	73.32703	834.14374	-1265.81091	100.46369	816.59021	-1256.56909	49.85411	763.40131	-901.51501	213.22606	923.20221	-1139.31958	236.16794	923.77783	-933.59015	380.87448	940.67908	-1082.84106	392.05008	954.45862	-854.36713	208.08963	623.74060	-899.18445	145.88959	458.84811	-894.32690	138.73352	267.93399	-924.89075	83.03974	64.40941	-962.71307	113.88224	24.29234	-949.39453	-69.53281	50.80032	-1171.06396	338.22568	636.53125	-1136.18701	363.66705	457.53329	-1133.97180	470.30334	293.77872	-1081.55969	569.68988	101.09176	-1029.30029	619.69501	83.83535	-1068.53479	442.26431	29.87169																					 
99	0.980	-942.48590	163.12282	1594.09680	-1075.14587	173.04175	1602.68054	-938.16571	294.65927	1561.88037	-1068.86389	299.66370	1569.64746	-1000.62677	339.56265	1402.04224	-1002.02582	379.31573	1087.99866	-1005.77698	220.16383	1321.82056	-1005.84558	180.84364	1156.81299	-1099.91492	399.38666	1229.03662	-846.47888	260.89850	1356.30310	-780.68127	293.86307	1157.06128	-771.06622	304.38971	1034.12427	-770.57874	302.02554	903.67047	-799.23010	306.05164	783.96472	-748.33466	327.90030	793.65924	-758.63538	332.91907	708.39606	-1162.88696	267.80606	1349.57715	-1240.93188	227.69305	1136.28809	-1256.00098	184.82907	1032.94922	-1257.58948	125.14664	910.09125	-1222.04785	65.06832	832.45044	-1264.56689	92.52563	815.30713	-1255.55286	42.55904	761.59570	-901.00000	201.62407	923.46576	-1138.87158	225.33258	923.50391	-932.16296	369.11011	941.16058	-1081.63086	381.08710	954.40533	-854.62103	196.80347	625.37134	-898.86053	139.32021	458.75101	-894.24493	132.69466	268.01889	-923.36676	78.04913	63.84335	-961.12360	111.67498	26.44353	-951.85352	-73.55286	43.29224	-1170.69458	328.13034	636.20630	-1136.18274	353.83252	457.19864	-1134.21838	463.54221	295.29974	-1082.57397	566.87921	104.92197	-1030.31274	617.47961	89.05678	-1068.65356	441.75583	29.80462																					 
100	0.990	-941.58453	152.96466	1594.89807	-1074.13831	163.09814	1603.42212	-937.03528	284.49149	1562.70630	-1067.71106	289.67236	1570.33643	-998.92584	329.32574	1402.47253	-1000.73364	368.23087	1088.30334	-1004.66840	209.91943	1322.59729	-1005.02637	170.02943	1157.68945	-1098.02161	389.35208	1229.16077	-845.11700	249.94850	1356.59204	-779.52136	281.96741	1157.05835	-770.15607	292.39655	1034.08447	-769.94006	289.92532	903.57611	-798.80365	294.23428	783.91248	-747.71069	315.54788	793.52075	-758.17896	320.91904	708.29620	-1161.72925	257.87717	1349.80945	-1239.36194	218.44347	1136.10120	-1254.32764	175.57079	1032.48328	-1256.01465	116.90192	909.08240	-1220.81824	57.36131	830.76111	-1263.29395	85.13918	814.07104	-1254.58569	35.92556	759.72406	-900.63000	189.72379	924.12811	-1138.33130	214.41618	923.49310	-931.11493	357.23035	942.27972	-1080.71423	369.87149	954.59918	-854.96313	185.91550	626.92639	-897.55646	132.81204	458.89572	-892.41016	125.86680	268.54340	-921.97986	73.44711	63.48982	-959.18738	108.92809	28.09215	-954.14343	-77.71114	38.31289	-1170.27356	317.51038	636.15112	-1136.53455	343.19586	457.11737	-1134.47998	456.17511	297.15015	-1083.19910	563.73364	109.22580	-1030.74365	614.58990	94.86253	-1068.81165	441.34995	29.66367																					 
101	1.000	-940.59991	142.76440	1595.87659	-1073.14331	153.11044	1604.22351	-935.81482	274.30591	1563.73474	-1066.46826	279.64960	1571.21301	-997.37604	318.85938	1403.28833	-999.58344	357.20407	1088.77710	-1003.49298	199.39810	1323.61560	-1004.06134	158.96060	1158.79907	-1096.20679	379.12561	1229.55652	-843.79688	239.01604	1357.21570	-778.38690	269.83215	1157.41174	-769.20630	280.03400	1034.37292	-769.40601	277.26575	903.85767	-798.40906	281.74112	784.26776	-747.15448	302.57697	793.74774	-757.84412	308.10028	708.57037	-1160.58154	248.00226	1350.44165	-1237.73950	209.32001	1136.23706	-1252.59998	166.58290	1032.26428	-1254.48889	109.09546	908.20563	-1219.62659	50.28358	829.10144	-1262.04858	78.40738	812.94910	-1253.63037	29.97383	757.97906	-900.37738	177.93811	925.36951	-1137.78137	203.32826	923.69006	-930.32227	345.71353	943.97870	-1080.02478	358.60858	955.12415	-855.29626	176.05350	628.22974	-896.13245	125.48760	459.01822	-891.04749	119.77668	268.49588	-921.89587	70.01737	63.14038	-958.18353	107.23393	29.03061	-953.57715	-81.03799	35.35025	-1169.90918	306.33890	636.23413	-1137.06982	331.62958	457.11176	-1134.73364	448.30167	299.35419	-1083.44971	560.08789	114.04469	-1030.75769	610.92065	101.43163	-1068.88538	440.65274	29.77829																					 
